# xmcd CD database file
#
# Track frame offsets:
#	150
#	25618
#	61120
#	97942
#	109408
#	157483
#	187544
#	239566
#	290014
#	310734
#
# Disc length: 4435 seconds
#
# Revision: 0
# Processed by: cddbd v1.5.2PL0 Copyright (c) Steve Scherf et al.
# Submitted via: CDex 1.70beta2
#
DISCID=8111510a
DTITLE=Various Artist - International Jazz festival - Jazzik 2010 Subotica
DYEAR=2010
DGENRE=Jazz
TTITLE0=Thousand Lovers
TTITLE1=Winter in Ladonia
TTITLE2=Rinflajs
TTITLE3=Over the Rainbow
TTITLE4=Skorpion
TTITLE5=Spain
TTITLE6=Habiba
TTITLE7=A Pur Formality
TTITLE8=Route 66
TTITLE9=You
EXTD=YEAR: 2010
EXTT0=
EXTT1=
EXTT2=
EXTT3=
EXTT4=
EXTT5=
EXTT6=
EXTT7=
EXTT8=
EXTT9=
PLAYORDER=
